<?xml version="1.0" encoding="UTF-8"?>
<!DOCTYPE svg PUBLIC "-//W3C//DTD SVG 1.1//EN" "http://www.w3.org/Graphics/SVG/1.1/DTD/svg11.dtd">
<svg xmlns="http://www.w3.org/2000/svg" version="1.1" width="500px" height="500px" style="shape-rendering:geometricPrecision; text-rendering:geometricPrecision; image-rendering:optimizeQuality; fill-rule:evenodd; clip-rule:evenodd" xmlns:xlink="http://www.w3.org/1999/xlink">
<g><path style="opacity:1" fill="#1c3d8f" d="M -0.5,-0.5 C 30.5,-0.5 61.5,-0.5 92.5,-0.5C 92.3893,0.117425 92.056,0.617425 91.5,1C 132.832,1.49999 174.165,1.66666 215.5,1.5C 245.5,1.5 275.5,1.5 305.5,1.5C 341.5,1.5 377.5,1.5 413.5,1.5C 441.005,1.16876 468.338,1.50209 495.5,2.5C 331.167,2.5 166.833,2.5 2.5,2.5C 2.5,168.167 2.5,333.833 2.5,499.5C 1.5,499.5 0.5,499.5 -0.5,499.5C -0.5,332.833 -0.5,166.167 -0.5,-0.5 Z"/></g>
<g><path style="opacity:1" fill="#4555c0" d="M 92.5,-0.5 C 133.833,-0.5 175.167,-0.5 216.5,-0.5C 216.167,0.166667 215.833,0.833333 215.5,1.5C 174.165,1.66666 132.832,1.49999 91.5,1C 92.056,0.617425 92.3893,0.117425 92.5,-0.5 Z"/></g>
<g><path style="opacity:1" fill="#9562d6" d="M 306.5,-0.5 C 342.5,-0.5 378.5,-0.5 414.5,-0.5C 414.167,0.166667 413.833,0.833333 413.5,1.5C 377.5,1.5 341.5,1.5 305.5,1.5C 305.833,0.833333 306.167,0.166667 306.5,-0.5 Z"/></g>
<g><path style="opacity:1" fill="#b561cf" d="M 414.5,-0.5 C 442.833,-0.5 471.167,-0.5 499.5,-0.5C 499.5,166.167 499.5,332.833 499.5,499.5C 498.167,499.5 496.833,499.5 495.5,499.5C 495.5,333.833 495.5,168.167 495.5,2.5C 468.338,1.50209 441.005,1.16876 413.5,1.5C 413.833,0.833333 414.167,0.166667 414.5,-0.5 Z"/></g>
<g><path style="opacity:1" fill="#6f5ccc" d="M 216.5,-0.5 C 246.5,-0.5 276.5,-0.5 306.5,-0.5C 306.167,0.166667 305.833,0.833333 305.5,1.5C 275.5,1.5 245.5,1.5 215.5,1.5C 215.833,0.833333 216.167,0.166667 216.5,-0.5 Z"/></g>
<g><path style="opacity:1" fill="#000000" d="M 495.5,2.5 C 495.5,168.167 495.5,333.833 495.5,499.5C 331.167,499.5 166.833,499.5 2.5,499.5C 2.5,333.833 2.5,168.167 2.5,2.5C 166.833,2.5 331.167,2.5 495.5,2.5 Z"/></g>
<g><path style="opacity:1" fill="#3351b8" d="M 138.5,198.5 C 138.932,225.215 139.266,252.048 139.5,279C 138.956,279.717 138.289,280.217 137.5,280.5C 100.814,238.044 92.3136,190.378 112,137.5C 124.653,109.509 143.82,87.0089 169.5,70C 175.716,66.2855 178.383,68.2855 177.5,76C 177.671,79.1293 176.838,81.9627 175,84.5C 149.669,103.833 131.669,128.5 121,158.5C 114.235,181.812 115.401,204.646 124.5,227C 125.449,227.617 126.282,227.451 127,226.5C 128.409,216.09 132.242,206.757 138.5,198.5 Z"/></g>
<g><path style="opacity:1" fill="#3e52ba" d="M 209.5,305.5 C 206.359,306.321 203.025,306.821 199.5,307C 200.849,308.635 200.682,310.135 199,311.5C 198.167,309 197,308.833 195.5,311C 198.167,312.333 198.167,313.667 195.5,315C 198.167,316.333 198.167,317.667 195.5,319C 197.125,319.853 197.458,320.853 196.5,322C 197.563,323.188 198.897,323.688 200.5,323.5C 199.62,325.611 199.62,327.611 200.5,329.5C 186.322,319.497 171.989,309.664 157.5,300C 150.329,293.996 143.662,287.496 137.5,280.5C 138.289,280.217 138.956,279.717 139.5,279C 139.266,252.048 138.932,225.215 138.5,198.5C 145.419,185.2 154.419,173.366 165.5,163C 167.112,162.28 168.612,162.446 170,163.5C 170.851,169.253 170.517,174.92 169,180.5C 156.66,195.178 147.993,211.845 143,230.5C 142.333,241.167 142.333,251.833 143,262.5C 157.64,280.819 175.473,294.986 196.5,305C 200.821,305.499 205.154,305.666 209.5,305.5 Z"/></g>
<g><path style="opacity:1" fill="#8c60d0" d="M 338.5,300.5 C 338.167,293.833 337.833,287.167 337.5,280.5C 352.622,260.133 357.122,237.467 351,212.5C 347.056,201.232 340.723,191.565 332,183.5C 327.735,177.498 326.402,170.831 328,163.5C 328.368,162.09 329.201,161.09 330.5,160.5C 363.027,184.584 375.193,216.584 367,256.5C 361.719,274.103 352.219,288.77 338.5,300.5 Z"/></g>
<g><path style="opacity:1" fill="#4d55bf" d="M 217.5,261.5 C 216.448,261.351 215.448,261.517 214.5,262C 214.179,267.351 214.513,272.851 215.5,278.5C 199.094,271.259 187.594,259.259 181,242.5C 178.105,226.846 181.938,213.012 192.5,201C 193.167,200.333 193.833,200.333 194.5,201C 197.722,204.944 199.722,209.444 200.5,214.5C 192.121,235.371 197.788,251.037 217.5,261.5 Z"/></g>
<g><path style="opacity:1" fill="#795ccb" d="M 292.5,272.5 C 291.154,269.325 289.154,268.825 286.5,271C 288.657,272.085 288.824,273.251 287,274.5C 284.549,272.869 284.049,271.036 285.5,269C 282.833,267.667 282.833,266.333 285.5,265C 285.167,264 284.833,263 284.5,262C 285.823,261.184 286.489,260.017 286.5,258.5C 292.984,253.847 297.817,247.847 301,240.5C 301.629,231.439 301.129,222.439 299.5,213.5C 298.622,208.525 300.122,204.525 304,201.5C 309.19,203.841 312.524,207.841 314,213.5C 322.513,234.995 317.68,253.162 299.5,268C 297.283,269.723 294.95,271.223 292.5,272.5 Z"/></g>
<g><path style="opacity:1" fill="#6a5ac8" d="M 286.5,258.5 C 286.489,260.017 285.823,261.184 284.5,262C 284.833,263 285.167,264 285.5,265C 282.833,266.333 282.833,267.667 285.5,269C 284.049,271.036 284.549,272.869 287,274.5C 288.824,273.251 288.657,272.085 286.5,271C 289.154,268.825 291.154,269.325 292.5,272.5C 285.314,276.682 278.147,281.015 271,285.5C 270.333,287.167 270.333,288.833 271,290.5C 272.611,293.938 274.777,296.938 277.5,299.5C 276.763,316.939 276.763,334.605 277.5,352.5C 273.833,358.501 270.666,364.835 268,371.5C 266.318,378.597 264.318,385.597 262,392.5C 257.866,399.264 252.033,401.597 244.5,399.5C 245.58,389.96 245.58,380.46 244.5,371C 244.836,369.97 245.503,369.47 246.5,369.5C 247.85,372.106 249.35,372.106 251,369.5C 257.105,358.627 262.105,347.293 266,335.5C 266.667,328.5 266.667,321.5 266,314.5C 262.181,306.362 257.014,299.195 250.5,293C 248.213,292.972 246.213,293.805 244.5,295.5C 245.379,288.273 245.379,280.94 244.5,273.5C 247.385,273.806 250.052,273.473 252.5,272.5C 264.568,269.461 275.902,264.794 286.5,258.5 Z"/></g>
<g><path style="opacity:1" fill="#5a58c4" d="M 217.5,261.5 C 224.236,265.201 231.236,268.367 238.5,271C 243.085,272.225 247.752,272.725 252.5,272.5C 250.052,273.473 247.385,273.806 244.5,273.5C 245.379,280.94 245.379,288.273 244.5,295.5C 240.101,301.08 236.268,307.08 233,313.5C 232.114,322.895 232.447,332.228 234,341.5C 237.907,350.977 242.073,360.311 246.5,369.5C 245.503,369.47 244.836,369.97 244.5,371C 245.58,380.46 245.58,389.96 244.5,399.5C 239.692,396.924 236.525,392.924 235,387.5C 230.236,363.959 218.736,344.625 200.5,329.5C 199.62,327.611 199.62,325.611 200.5,323.5C 198.897,323.688 197.563,323.188 196.5,322C 197.458,320.853 197.125,319.853 195.5,319C 198.167,317.667 198.167,316.333 195.5,315C 198.167,313.667 198.167,312.333 195.5,311C 197,308.833 198.167,309 199,311.5C 200.682,310.135 200.849,308.635 199.5,307C 203.025,306.821 206.359,306.321 209.5,305.5C 211.924,304.97 214.257,304.136 216.5,303C 221.872,298.807 225.872,293.64 228.5,287.5C 228.124,285.617 227.124,284.117 225.5,283C 222.107,281.38 218.774,279.88 215.5,278.5C 214.513,272.851 214.179,267.351 214.5,262C 215.448,261.517 216.448,261.351 217.5,261.5 Z"/></g>
<g><path style="opacity:1" fill="#010002" d="M 246.5,369.5 C 242.073,360.311 237.907,350.977 234,341.5C 232.447,332.228 232.114,322.895 233,313.5C 236.268,307.08 240.101,301.08 244.5,295.5C 246.213,293.805 248.213,292.972 250.5,293C 257.014,299.195 262.181,306.362 266,314.5C 266.667,321.5 266.667,328.5 266,335.5C 262.105,347.293 257.105,358.627 251,369.5C 249.35,372.106 247.85,372.106 246.5,369.5 Z"/></g>
<g><path style="opacity:1" fill="#785dcd" d="M 337.5,280.5 C 337.833,287.167 338.167,293.833 338.5,300.5C 330.261,307.632 321.261,313.799 311.5,319C 298.306,328.362 286.972,339.528 277.5,352.5C 276.763,334.605 276.763,316.939 277.5,299.5C 289.318,307.314 301.318,307.48 313.5,300C 322.081,294.21 330.081,287.71 337.5,280.5 Z"/></g>
</svg>
