<?xml version="1.0" encoding="UTF-8"?>
<!DOCTYPE svg PUBLIC "-//W3C//DTD SVG 1.1//EN" "http://www.w3.org/Graphics/SVG/1.1/DTD/svg11.dtd">
<svg xmlns="http://www.w3.org/2000/svg" version="1.1" width="500px" height="500px" style="shape-rendering:geometricPrecision; text-rendering:geometricPrecision; image-rendering:optimizeQuality; fill-rule:evenodd; clip-rule:evenodd" xmlns:xlink="http://www.w3.org/1999/xlink">
<g><path style="opacity:1" fill="#000000" d="M -0.5,-0.5 C 166.167,-0.5 332.833,-0.5 499.5,-0.5C 499.5,166.167 499.5,332.833 499.5,499.5C 332.833,499.5 166.167,499.5 -0.5,499.5C -0.5,332.833 -0.5,166.167 -0.5,-0.5 Z"/></g>
<g><path style="opacity:1" fill="#825ecd" d="M 306.5,313.5 C 305.621,309.235 305.287,305.235 305.5,301.5C 314.013,295.972 321.179,288.972 327,280.5C 339.863,254.822 336.196,231.822 316,211.5C 315.501,207.179 315.334,202.846 315.5,198.5C 339.11,214.072 348.943,236.072 345,264.5C 340.165,287.163 327.331,303.496 306.5,313.5 Z"/></g>
<g><path style="opacity:1" fill="#4654bc" d="M 216.5,305.5 C 215.761,305.369 215.094,305.536 214.5,306C 214.736,310.118 214.736,314.284 214.5,318.5C 188.494,305.327 168.994,285.661 156,259.5C 137.947,204.594 153.114,161.261 201.5,129.5C 204.134,134.079 203.967,138.746 201,143.5C 179.523,159.462 165.857,180.462 160,206.5C 158.73,219.371 159.73,232.038 163,244.5C 163.424,246.615 164.591,247.448 166.5,247C 171.422,229.992 180.088,215.159 192.5,202.5C 193.833,201.5 195.167,200.5 196.5,199.5C 197.086,199.709 197.586,200.043 198,200.5C 198.667,204.5 198.667,208.5 198,212.5C 189.611,222.605 183.277,233.938 179,246.5C 177.487,255.447 177.154,264.447 178,273.5C 188.931,286.61 201.764,297.277 216.5,305.5 Z"/></g>
<g><path style="opacity:1" fill="#5e58c3" d="M 262.5,280.5 C 259.875,281.441 259.875,282.607 262.5,284C 259.833,285.333 259.833,286.667 262.5,288C 259.833,289.333 259.833,290.667 262.5,292C 259.833,293.333 259.833,294.667 262.5,296C 261.619,296.708 260.953,297.542 260.5,298.5C 259.162,296.887 257.495,296.387 255.5,297C 244.476,306.953 241.31,319.12 246,333.5C 249,340.167 252,346.833 255,353.5C 255.718,354.451 256.551,354.617 257.5,354C 258.399,352.348 259.399,350.848 260.5,349.5C 262.931,351.068 262.931,352.568 260.5,354C 263.167,355.333 263.167,356.667 260.5,358C 263.167,359.333 263.167,360.667 260.5,362C 263.167,363.333 263.167,364.667 260.5,366C 263.167,367.333 263.167,368.667 260.5,370C 262.241,371.083 262.907,372.25 262.5,373.5C 256.825,377.881 251.991,376.881 248,370.5C 243.587,348.642 232.421,331.308 214.5,318.5C 214.736,314.284 214.736,310.118 214.5,306C 215.094,305.536 215.761,305.369 216.5,305.5C 221.179,305.666 225.845,305.499 230.5,305C 235.229,301.939 238.896,297.939 241.5,293C 241.22,291.605 240.553,290.438 239.5,289.5C 223.24,284.072 212.074,273.405 206,257.5C 204.591,246.728 207.424,237.228 214.5,229C 215.167,228.333 215.833,228.333 216.5,229C 217.667,230.833 218.833,232.667 220,234.5C 219.947,240.012 219.447,245.512 218.5,251C 218.342,258.527 221.342,264.527 227.5,269C 235.976,275.071 245.31,279.238 255.5,281.5C 257.818,281.003 260.152,280.67 262.5,280.5 Z"/></g>
<g><path style="opacity:1" fill="#6f5bc8" d="M 305.5,301.5 C 305.287,305.235 305.621,309.235 306.5,313.5C 285.512,326.118 272.345,344.451 267,368.5C 266.004,370.66 264.504,372.327 262.5,373.5C 262.907,372.25 262.241,371.083 260.5,370C 263.167,368.667 263.167,367.333 260.5,366C 263.167,364.667 263.167,363.333 260.5,362C 263.167,360.667 263.167,359.333 260.5,358C 263.167,356.667 263.167,355.333 260.5,354C 262.931,352.568 262.931,351.068 260.5,349.5C 262.988,343.855 265.488,338.188 268,332.5C 272.075,319.536 269.575,308.203 260.5,298.5C 260.953,297.542 261.619,296.708 262.5,296C 259.833,294.667 259.833,293.333 262.5,292C 259.833,290.667 259.833,289.333 262.5,288C 259.833,286.667 259.833,285.333 262.5,284C 259.875,282.607 259.875,281.441 262.5,280.5C 274.437,277.45 284.604,271.45 293,262.5C 294.943,259.286 295.776,255.786 295.5,252C 294.643,245.176 294.476,238.343 295,231.5C 295.368,230.09 296.201,229.09 297.5,228.5C 302.647,232.101 305.814,237.101 307,243.5C 309.699,257.956 305.199,269.79 293.5,279C 287.5,282.333 281.5,285.667 275.5,289C 274.101,290.062 273.101,291.395 272.5,293C 277.494,302.83 285.494,306.83 296.5,305C 299.521,303.82 302.521,302.654 305.5,301.5 Z"/></g>
<g><path style="opacity:1" fill="#010002" d="M 260.5,298.5 C 269.575,308.203 272.075,319.536 268,332.5C 265.488,338.188 262.988,343.855 260.5,349.5C 259.399,350.848 258.399,352.348 257.5,354C 256.551,354.617 255.718,354.451 255,353.5C 252,346.833 249,340.167 246,333.5C 241.31,319.12 244.476,306.953 255.5,297C 257.495,296.387 259.162,296.887 260.5,298.5 Z"/></g>
</svg>
